<svg width="60" height="65" viewBox="0 0 60 65" fill="none" xmlns="http://www.w3.org/2000/svg">
<path d="M8.44989 21.8597H43.9518V18.5314C43.356 17.0522 41.4617 14.106 38.6512 14.1553H13.1342C12.0042 14.3197 9.48536 15.425 8.44989 18.5314V21.8597Z" fill="#917800"/>
<path d="M33.104 10.2107H38.6512L44.8763 3.8006H58.2512C58.7648 3.78006 59.8044 3.3445 59.8537 1.76664C59.903 0.188779 57.8608 -0.000235491 56.8335 0.10249H44.8763C44.26 -0.0413252 42.793 0.00387485 41.8562 1.3352L33.104 10.2107Z" fill="#917800"/>
<path d="M6.7241 25.6195H45.5543C48.2046 29.5025 53.1601 38.6492 51.7795 44.1717C51.7795 49.7599 48.3156 61.3679 34.46 63.0937C20.6044 64.8195 28.4813 63.8128 34.1518 63.0937H18.1883C12.0247 63.0937 0.153783 55.266 0.49894 44.1717C-0.191374 38.6985 4.36141 29.523 6.7241 25.6195Z" fill="#917800"/>
</svg>
