<svg width="64" height="64" viewBox="0 0 64 64" fill="none" xmlns="http://www.w3.org/2000/svg">
<path d="M4.63156 3.39387L7.31312 10.1816C7.56256 11.2464 7.12603 14.0413 4.63156 14.0413C2.13709 14.0413 1.61741 11.69 1.82528 10.1816L4.63156 3.39387Z" fill="#917800"/>
<path d="M12.4268 0L14.36 4.25897C14.6094 5.32372 14.5471 7.61631 12.6762 7.61631C10.8054 7.61631 10.4229 5.76736 10.6308 4.25897L12.4268 0Z" fill="#917800"/>
<path d="M30.0752 7.18702V5.05753C30.678 4.05933 32.2578 2.66186 33.7545 5.05753V7.32011C42.506 7.34229 60.8071 12.7503 64 34.2049C60.7988 32.4081 53.2738 30.3585 48.7837 36.534C47.2454 34.0052 42.086 29.9991 33.7545 34.2049V55.8325C33.3596 58.8049 31.1229 64.59 25.3357 63.9512C18.1017 63.1526 16.4803 57.2965 16.4803 55.8325C16.3348 54.8121 16.5052 52.7314 18.3512 52.5717C19.0995 52.5495 20.4715 52.0393 20.4715 55.8325C20.4715 59.6256 28.7157 61.9414 30.0128 55.2336V34.2049C26.9363 32.275 19.6109 30.0657 14.9212 36.6671C13.5909 33.9831 8.7599 29.733 0.0791386 34.2049C-1.02352 25.9195 9.68286 14.1079 14.36 11.6192C19.0371 9.13053 24.3948 7.10473 30.0752 7.18702Z" fill="#917800"/>
</svg>
