<svg width="64" height="64" viewBox="0 0 64 64" fill="none" xmlns="http://www.w3.org/2000/svg">
<g clip-path="url(#clip0_8_2)">
<path d="M42.5 15.2615L49.5 21.1692L54.9999 9.35382L42.5 15.2615Z" fill="#917800"/>
<path d="M36.5 12.8H27L31.5 0L36.5 12.8Z" fill="#917800"/>
<path d="M20.9999 15.2615L14.5 21.1692L8.50003 9.35382L20.9999 15.2615Z" fill="#917800"/>
<path d="M12.5603 27.5011L12.9078 36.2777L0 33.2792L12.5603 27.5011Z" fill="#917800"/>
<path d="M50.5428 36.8746L50.6552 28.0918L63.3884 31.7617L50.5428 36.8746Z" fill="#917800"/>
<path d="M21.5 48.7385L14.5 42.8308L9.00005 54.6462L21.5 48.7385Z" fill="#917800"/>
<path d="M27.5 51.2H37L32.5 64L27.5 51.2Z" fill="#917800"/>
<path d="M43.0001 48.7385L49.5 42.8308L55.5 54.6462L43.0001 48.7385Z" fill="#917800"/>
<circle cx="31.4074" cy="31.4074" r="17.1852" fill="#917800"/>
</g>
<defs>
<clipPath id="clip0_8_2">
<rect width="64" height="64" fill="white"/>
</clipPath>
</defs>
</svg>
