<svg width="64" height="77" viewBox="0 0 64 77" fill="none" xmlns="http://www.w3.org/2000/svg">
<path d="M45.9219 43C45.9219 38.5692 41.288 28.6744 31.5781 28.8769C21.8683 29.0795 17.5156 38.0154 17.6562 43H45.9219Z" fill="#917800"/>
<path d="M40.8594 28.8769L46.7656 33.8615L51.4062 23.8923L40.8594 28.8769Z" fill="#917800"/>
<path d="M59 43L48.0312 38.4308V43H59Z" fill="#917800"/>
<path d="M35.7969 26.8H27.7812L31.5781 16L35.7969 26.8Z" fill="#917800"/>
<path d="M22.7187 28.8769L17.2344 33.8615L12.1719 23.8923L22.7187 28.8769Z" fill="#917800"/>
<path d="M14.7031 38.4308V43H5L14.7031 38.4308Z" fill="#917800"/>
<path d="M64 44H1.14441e-05V47H64V44Z" fill="#917800"/>
<path d="M35.6667 77H30.1111H27.3333V59.8636H19L31.5 48L44 59.8636H35.6667V77Z" fill="#917800"/>
</svg>
