<svg width="65" height="64" viewBox="0 0 65 64" fill="none" xmlns="http://www.w3.org/2000/svg">
<path d="M33 15.5C27.6667 15.5 15.7562 20.992 16 32.5C16.2438 44.008 27 49.1667 33 49V15.5Z" fill="#917800"/>
<path d="M16 21.5L22 14.5L10 9L16 21.5Z" fill="#917800"/>
<path d="M33 0L27.5 13H33V0Z" fill="#917800"/>
<path d="M13.5 27.5V37L0.5 32.5L13.5 27.5Z" fill="#917800"/>
<path d="M16 43L22 49.5L10 55.5L16 43Z" fill="#917800"/>
<path d="M27.5 52.5H33V64L27.5 52.5Z" fill="#917800"/>
<path d="M34 1H36V7.5L41 2L43.5 5.5L36 14.5V26L44.5 17.5V6H48.5V13.5L54 8L57 11L52 16H60V20.5H48.5L39 30H51L59.5 21.5L62.5 24.5L57 30H64.5V34H57L62.5 39.5L59.5 42.5L51 34H39L48.5 43.5H59.5V47.5H52L57 52.5L54 55.5L48.5 50V58H44.5V47.5L36 39V51L43 58L40 61L36 57V64H34V1Z" fill="#80A3FF"/>
</svg>
